<mxfile host="app.diagrams.net" agent="Mozilla/5.0 (Windows NT 10.0; Win64; x64) AppleWebKit/537.36 (KHTML, like Gecko) Chrome/128.0.0.0 Safari/537.36" version="24.7.15">
  <diagram name="Page-1" id="929967ad-93f9-6ef4-fab6-5d389245f69c">
    <mxGraphModel dx="4360.5" dy="1033" grid="1" gridSize="10" guides="1" tooltips="1" connect="1" arrows="1" fold="1" page="1" pageScale="1.5" pageWidth="1169" pageHeight="826" background="none" math="0" shadow="0">
      <root>
        <mxCell id="0" style=";html=1;" />
        <mxCell id="1" style=";html=1;" parent="0" />
        <mxCell id="qAqBDBvqotY8MNwrv96N-11" value="" style="rounded=0;whiteSpace=wrap;html=1;dashed=1;dashPattern=8 8;strokeColor=#000000;strokeWidth=1.5;align=center;verticalAlign=middle;fontFamily=Helvetica;fontSize=15;fontColor=default;fillColor=none;movable=1;resizable=1;rotatable=1;deletable=1;editable=1;locked=0;connectable=1;" vertex="1" parent="1">
          <mxGeometry x="-45.25" y="65" width="1480" height="1110" as="geometry" />
        </mxCell>
        <mxCell id="qAqBDBvqotY8MNwrv96N-1" value="Hardware component" style="html=1;whiteSpace=wrap;strokeColor=#7f7f7f;fillColor=#d9d9d9;strokeWidth=1.5;movable=1;resizable=1;rotatable=1;deletable=1;editable=1;locked=0;connectable=1;fontSize=15;" vertex="1" parent="1">
          <mxGeometry x="1480" y="880" width="170" height="50" as="geometry" />
        </mxCell>
        <mxCell id="qAqBDBvqotY8MNwrv96N-2" value="This Software&lt;div style=&quot;font-size: 15px;&quot;&gt;Element&lt;/div&gt;" style="html=1;whiteSpace=wrap;strokeColor=#000000;fillColor=none;strokeWidth=1.5;dashed=1;dashPattern=8 8;movable=1;resizable=1;rotatable=1;deletable=1;editable=1;locked=0;connectable=1;fontSize=15;" vertex="1" parent="1">
          <mxGeometry x="1480" y="790" width="170" height="50" as="geometry" />
        </mxCell>
        <mxCell id="qAqBDBvqotY8MNwrv96N-3" value="Safety Software&lt;div style=&quot;font-size: 15px;&quot;&gt;Component in Element&lt;/div&gt;" style="html=1;whiteSpace=wrap;strokeColor=#7030a0;fillColor=#f8cbad;strokeWidth=1.5;rounded=1;movable=1;resizable=1;rotatable=1;deletable=1;editable=1;locked=0;connectable=1;fontSize=15;" vertex="1" parent="1">
          <mxGeometry x="1480" y="710" width="170" height="50" as="geometry" />
        </mxCell>
        <mxCell id="qAqBDBvqotY8MNwrv96N-4" value="Non-Safety Software&lt;div style=&quot;font-size: 15px;&quot;&gt;Component in Element&lt;/div&gt;" style="html=1;whiteSpace=wrap;strokeColor=#7030a0;fillColor=#b4c7e7;strokeWidth=1.5;rounded=1;movable=1;resizable=1;rotatable=1;deletable=1;editable=1;locked=0;connectable=1;fontSize=15;" vertex="1" parent="1">
          <mxGeometry x="1480" y="630" width="170" height="50" as="geometry" />
        </mxCell>
        <mxCell id="qAqBDBvqotY8MNwrv96N-5" value="Open Souce&lt;div style=&quot;font-size: 15px;&quot;&gt;Element/Component/&lt;/div&gt;&lt;div style=&quot;font-size: 15px;&quot;&gt;Component Set&lt;/div&gt;" style="html=1;whiteSpace=wrap;strokeColor=#000000;fillColor=none;strokeWidth=1.5;rounded=1;movable=1;resizable=1;rotatable=1;deletable=1;editable=1;locked=0;connectable=1;fontSize=15;" vertex="1" parent="1">
          <mxGeometry x="1480" y="550" width="170" height="50" as="geometry" />
        </mxCell>
        <mxCell id="qAqBDBvqotY8MNwrv96N-6" value="Axera Software&lt;div style=&quot;font-size: 15px;&quot;&gt;Component Set&lt;/div&gt;" style="html=1;whiteSpace=wrap;strokeColor=#7030a0;fillColor=none;strokeWidth=1.5;rounded=1;movable=1;resizable=1;rotatable=1;deletable=1;editable=1;locked=0;connectable=1;fontSize=15;" vertex="1" parent="1">
          <mxGeometry x="1480" y="470" width="170" height="50" as="geometry" />
        </mxCell>
        <mxCell id="qAqBDBvqotY8MNwrv96N-7" value="Other Software&lt;div style=&quot;font-size: 15px;&quot;&gt;Element/Componet&lt;/div&gt;&lt;div style=&quot;font-size: 15px;&quot;&gt;Outside this Element&lt;/div&gt;" style="html=1;whiteSpace=wrap;strokeColor=#000000;fillColor=#a6a6a6;strokeWidth=1.5;rounded=1;dashed=1;dashPattern=8 8;movable=1;resizable=1;rotatable=1;deletable=1;editable=1;locked=0;connectable=1;fontSize=15;" vertex="1" parent="1">
          <mxGeometry x="1480" y="390" width="170" height="50" as="geometry" />
        </mxCell>
        <mxCell id="qAqBDBvqotY8MNwrv96N-8" value="" style="html=1;whiteSpace=wrap;rounded=1;strokeColor=#7030a0;strokeWidth=1.5;align=center;verticalAlign=middle;fontFamily=Helvetica;fontSize=12;fontColor=default;fillColor=none;movable=1;resizable=1;rotatable=1;deletable=1;editable=1;locked=0;connectable=1;" vertex="1" parent="1">
          <mxGeometry x="0.5" y="170" width="1389.5" height="240" as="geometry" />
        </mxCell>
        <mxCell id="qAqBDBvqotY8MNwrv96N-9" value="" style="html=1;whiteSpace=wrap;rounded=1;strokeColor=#000000;strokeWidth=1.5;align=center;verticalAlign=middle;fontFamily=Helvetica;fontSize=12;fontColor=default;fillColor=none;movable=1;resizable=1;rotatable=1;deletable=1;editable=1;locked=0;connectable=1;" vertex="1" parent="1">
          <mxGeometry x="0.5" y="435" width="1389.5" height="280" as="geometry" />
        </mxCell>
        <mxCell id="qAqBDBvqotY8MNwrv96N-10" value="" style="html=1;whiteSpace=wrap;rounded=1;strokeColor=#7030a0;strokeWidth=1.5;align=center;verticalAlign=middle;fontFamily=Helvetica;fontSize=12;fontColor=default;fillColor=none;movable=1;resizable=1;rotatable=1;deletable=1;editable=1;locked=0;connectable=1;" vertex="1" parent="1">
          <mxGeometry x="0.5" y="730" width="1389.5" height="410" as="geometry" />
        </mxCell>
        <mxCell id="qAqBDBvqotY8MNwrv96N-12" style="edgeStyle=orthogonalEdgeStyle;rounded=0;orthogonalLoop=1;jettySize=auto;html=1;exitX=0.5;exitY=1;exitDx=0;exitDy=0;movable=1;resizable=1;rotatable=1;deletable=1;editable=1;locked=0;connectable=1;" edge="1" parent="1">
          <mxGeometry relative="1" as="geometry">
            <mxPoint x="175.5" y="700" as="sourcePoint" />
            <mxPoint x="175.5" y="700" as="targetPoint" />
          </mxGeometry>
        </mxCell>
        <mxCell id="qAqBDBvqotY8MNwrv96N-13" value="«component&lt;span style=&quot;background-color: initial; font-size: 15px;&quot;&gt;»&lt;/span&gt;&lt;div style=&quot;font-size: 15px;&quot;&gt;&lt;b style=&quot;font-size: 15px;&quot;&gt;S01E01C01&lt;/b&gt;&lt;/div&gt;&lt;div style=&quot;font-size: 15px;&quot;&gt;&lt;b style=&quot;font-size: 15px;&quot;&gt;UART Driver&lt;/b&gt;&lt;/div&gt;" style="html=1;dropTarget=0;whiteSpace=wrap;rounded=1;strokeColor=#7030a0;strokeWidth=1.5;align=center;verticalAlign=middle;fontFamily=Helvetica;fontSize=15;fontColor=default;fillColor=#f8cbad;movable=1;resizable=1;rotatable=1;deletable=1;editable=1;locked=0;connectable=1;" vertex="1" parent="1">
          <mxGeometry x="640" y="1060" width="170" height="60" as="geometry" />
        </mxCell>
        <mxCell id="qAqBDBvqotY8MNwrv96N-14" value="" style="shape=module;jettyWidth=8;jettyHeight=4;rounded=1;strokeColor=#7030a0;strokeWidth=1.5;align=center;verticalAlign=middle;fontFamily=Helvetica;fontSize=12;fontColor=default;fillColor=#f8cbad;movable=1;resizable=1;rotatable=1;deletable=1;editable=1;locked=0;connectable=1;" vertex="1" parent="qAqBDBvqotY8MNwrv96N-13">
          <mxGeometry x="1" width="20" height="20" relative="1" as="geometry">
            <mxPoint x="-27" y="7" as="offset" />
          </mxGeometry>
        </mxCell>
        <mxCell id="qAqBDBvqotY8MNwrv96N-15" value="&lt;font style=&quot;font-size: 18px;&quot;&gt;«component»&lt;br&gt;&lt;b&gt;Hardware&lt;/b&gt;&lt;/font&gt;" style="html=1;dropTarget=0;whiteSpace=wrap;strokeColor=#7f7f7f;strokeWidth=1.5;align=center;verticalAlign=middle;fontFamily=Helvetica;fontSize=12;fontColor=default;fillColor=#d9d9d9;movable=1;resizable=1;rotatable=1;deletable=1;editable=1;locked=0;connectable=1;" vertex="1" parent="1">
          <mxGeometry x="-45.25" y="1200" width="1480" height="90" as="geometry" />
        </mxCell>
        <mxCell id="qAqBDBvqotY8MNwrv96N-16" value="" style="shape=module;jettyWidth=8;jettyHeight=4;strokeColor=#7f7f7f;strokeWidth=1.5;align=center;verticalAlign=middle;fontFamily=Helvetica;fontSize=12;fontColor=default;fillColor=#d9d9d9;movable=1;resizable=1;rotatable=1;deletable=1;editable=1;locked=0;connectable=1;" vertex="1" parent="qAqBDBvqotY8MNwrv96N-15">
          <mxGeometry x="1" width="20" height="20" relative="1" as="geometry">
            <mxPoint x="-27" y="7" as="offset" />
          </mxGeometry>
        </mxCell>
        <mxCell id="qAqBDBvqotY8MNwrv96N-17" value="«component&lt;span style=&quot;background-color: initial; font-size: 15px;&quot;&gt;»&lt;/span&gt;&lt;div style=&quot;font-size: 15px;&quot;&gt;&lt;b style=&quot;font-size: 15px;&quot;&gt;S01E01C02&lt;/b&gt;&lt;/div&gt;&lt;div style=&quot;font-size: 15px;&quot;&gt;&lt;b style=&quot;font-size: 15px;&quot;&gt;CAN Driver&lt;/b&gt;&lt;/div&gt;" style="html=1;dropTarget=0;whiteSpace=wrap;rounded=1;strokeColor=#7030a0;strokeWidth=1.5;align=center;verticalAlign=middle;fontFamily=Helvetica;fontSize=15;fontColor=default;fillColor=#f8cbad;movable=1;resizable=1;rotatable=1;deletable=1;editable=1;locked=0;connectable=1;" vertex="1" parent="1">
          <mxGeometry x="876.5" y="1060" width="170" height="60" as="geometry" />
        </mxCell>
        <mxCell id="qAqBDBvqotY8MNwrv96N-18" value="" style="shape=module;jettyWidth=8;jettyHeight=4;rounded=1;strokeColor=#7030a0;strokeWidth=1.5;align=center;verticalAlign=middle;fontFamily=Helvetica;fontSize=12;fontColor=default;fillColor=#f8cbad;movable=1;resizable=1;rotatable=1;deletable=1;editable=1;locked=0;connectable=1;" vertex="1" parent="qAqBDBvqotY8MNwrv96N-17">
          <mxGeometry x="1" width="20" height="20" relative="1" as="geometry">
            <mxPoint x="-27" y="7" as="offset" />
          </mxGeometry>
        </mxCell>
        <mxCell id="qAqBDBvqotY8MNwrv96N-19" value="«component&lt;span style=&quot;background-color: initial; font-size: 15px;&quot;&gt;»&lt;/span&gt;&lt;div style=&quot;font-size: 15px;&quot;&gt;&lt;b style=&quot;font-size: 15px;&quot;&gt;S01E01C07&lt;/b&gt;&lt;/div&gt;&lt;div style=&quot;font-size: 15px;&quot;&gt;&lt;b style=&quot;font-size: 15px;&quot;&gt;Clock Driver&lt;/b&gt;&lt;/div&gt;" style="html=1;dropTarget=0;whiteSpace=wrap;rounded=1;strokeColor=#7030a0;strokeWidth=1.5;align=center;verticalAlign=middle;fontFamily=Helvetica;fontSize=15;fontColor=default;fillColor=#f8cbad;movable=1;resizable=1;rotatable=1;deletable=1;editable=1;locked=0;connectable=1;" vertex="1" parent="1">
          <mxGeometry x="280" y="1060" width="170" height="60" as="geometry" />
        </mxCell>
        <mxCell id="qAqBDBvqotY8MNwrv96N-20" value="" style="shape=module;jettyWidth=8;jettyHeight=4;rounded=1;strokeColor=#7030a0;strokeWidth=1.5;align=center;verticalAlign=middle;fontFamily=Helvetica;fontSize=12;fontColor=default;fillColor=#f8cbad;movable=1;resizable=1;rotatable=1;deletable=1;editable=1;locked=0;connectable=1;" vertex="1" parent="qAqBDBvqotY8MNwrv96N-19">
          <mxGeometry x="1" width="20" height="20" relative="1" as="geometry">
            <mxPoint x="-27" y="7" as="offset" />
          </mxGeometry>
        </mxCell>
        <mxCell id="qAqBDBvqotY8MNwrv96N-21" value="«component&lt;span style=&quot;background-color: initial; font-size: 15px;&quot;&gt;»&lt;/span&gt;&lt;div style=&quot;font-size: 15px;&quot;&gt;&lt;b style=&quot;font-size: 15px;&quot;&gt;S01E01C08&lt;/b&gt;&lt;/div&gt;&lt;div style=&quot;font-size: 15px;&quot;&gt;&lt;b style=&quot;font-size: 15px;&quot;&gt;Reset Driver&lt;/b&gt;&lt;/div&gt;" style="html=1;dropTarget=0;whiteSpace=wrap;rounded=1;strokeColor=#7030a0;strokeWidth=1.5;align=center;verticalAlign=middle;fontFamily=Helvetica;fontSize=15;fontColor=default;fillColor=#f8cbad;movable=1;resizable=1;rotatable=1;deletable=1;editable=1;locked=0;connectable=1;" vertex="1" parent="1">
          <mxGeometry x="40" y="1060" width="170" height="60" as="geometry" />
        </mxCell>
        <mxCell id="qAqBDBvqotY8MNwrv96N-22" value="" style="shape=module;jettyWidth=8;jettyHeight=4;rounded=1;strokeColor=#7030a0;strokeWidth=1.5;align=center;verticalAlign=middle;fontFamily=Helvetica;fontSize=12;fontColor=default;fillColor=#f8cbad;movable=1;resizable=1;rotatable=1;deletable=1;editable=1;locked=0;connectable=1;" vertex="1" parent="qAqBDBvqotY8MNwrv96N-21">
          <mxGeometry x="1" width="20" height="20" relative="1" as="geometry">
            <mxPoint x="-27" y="7" as="offset" />
          </mxGeometry>
        </mxCell>
        <mxCell id="qAqBDBvqotY8MNwrv96N-23" value="«component&lt;span style=&quot;background-color: initial; font-size: 15px;&quot;&gt;»&lt;/span&gt;&lt;div style=&quot;font-size: 15px;&quot;&gt;&lt;b style=&quot;font-size: 15px;&quot;&gt;S01E01C10&lt;/b&gt;&lt;/div&gt;&lt;div style=&quot;font-size: 15px;&quot;&gt;&lt;b style=&quot;background-color: initial;&quot;&gt;DDR Driver&lt;/b&gt;&lt;/div&gt;" style="html=1;dropTarget=0;whiteSpace=wrap;rounded=1;strokeColor=#7030a0;strokeWidth=1.5;align=center;verticalAlign=middle;fontFamily=Helvetica;fontSize=15;fontColor=default;fillColor=#f8cbad;movable=1;resizable=1;rotatable=1;deletable=1;editable=1;locked=0;connectable=1;" vertex="1" parent="1">
          <mxGeometry x="150" y="960" width="170" height="60" as="geometry" />
        </mxCell>
        <mxCell id="qAqBDBvqotY8MNwrv96N-24" value="" style="shape=module;jettyWidth=8;jettyHeight=4;rounded=1;strokeColor=#7030a0;strokeWidth=1.5;align=center;verticalAlign=middle;fontFamily=Helvetica;fontSize=12;fontColor=default;fillColor=#f8cbad;movable=1;resizable=1;rotatable=1;deletable=1;editable=1;locked=0;connectable=1;" vertex="1" parent="qAqBDBvqotY8MNwrv96N-23">
          <mxGeometry x="1" width="20" height="20" relative="1" as="geometry">
            <mxPoint x="-27" y="7" as="offset" />
          </mxGeometry>
        </mxCell>
        <mxCell id="qAqBDBvqotY8MNwrv96N-25" value="«component&lt;span style=&quot;background-color: initial; font-size: 15px;&quot;&gt;»&lt;/span&gt;&lt;div style=&quot;font-size: 15px;&quot;&gt;&lt;b style=&quot;font-size: 15px;&quot;&gt;S01E01C12&lt;/b&gt;&lt;/div&gt;&lt;div style=&quot;font-size: 15px;&quot;&gt;&lt;b style=&quot;font-size: 15px;&quot;&gt;PINCTRL Driver&lt;/b&gt;&lt;/div&gt;" style="html=1;dropTarget=0;whiteSpace=wrap;rounded=1;strokeColor=#7030a0;strokeWidth=1.5;align=center;verticalAlign=middle;fontFamily=Helvetica;fontSize=15;fontColor=default;fillColor=#f8cbad;movable=1;resizable=1;rotatable=1;deletable=1;editable=1;locked=0;connectable=1;" vertex="1" parent="1">
          <mxGeometry x="640" y="960" width="170" height="60" as="geometry" />
        </mxCell>
        <mxCell id="qAqBDBvqotY8MNwrv96N-26" value="" style="shape=module;jettyWidth=8;jettyHeight=4;rounded=1;strokeColor=#7030a0;strokeWidth=1.5;align=center;verticalAlign=middle;fontFamily=Helvetica;fontSize=12;fontColor=default;fillColor=#f8cbad;movable=1;resizable=1;rotatable=1;deletable=1;editable=1;locked=0;connectable=1;" vertex="1" parent="qAqBDBvqotY8MNwrv96N-25">
          <mxGeometry x="1" width="20" height="20" relative="1" as="geometry">
            <mxPoint x="-27" y="7" as="offset" />
          </mxGeometry>
        </mxCell>
        <mxCell id="qAqBDBvqotY8MNwrv96N-27" value="«component&lt;span style=&quot;background-color: initial; font-size: 15px;&quot;&gt;»&lt;/span&gt;&lt;div style=&quot;font-size: 15px;&quot;&gt;&lt;b style=&quot;font-size: 15px;&quot;&gt;S01E01C11&lt;/b&gt;&lt;/div&gt;&lt;div style=&quot;font-size: 15px;&quot;&gt;&lt;b style=&quot;font-size: 15px;&quot;&gt;GPIO Driver&lt;/b&gt;&lt;/div&gt;" style="html=1;dropTarget=0;whiteSpace=wrap;rounded=1;strokeColor=#7030a0;strokeWidth=1.5;align=center;verticalAlign=middle;fontFamily=Helvetica;fontSize=15;fontColor=default;fillColor=#f8cbad;movable=1;resizable=1;rotatable=1;deletable=1;editable=1;locked=0;connectable=1;" vertex="1" parent="1">
          <mxGeometry x="877" y="960" width="170" height="60" as="geometry" />
        </mxCell>
        <mxCell id="qAqBDBvqotY8MNwrv96N-28" value="" style="shape=module;jettyWidth=8;jettyHeight=4;rounded=1;strokeColor=#7030a0;strokeWidth=1.5;align=center;verticalAlign=middle;fontFamily=Helvetica;fontSize=12;fontColor=default;fillColor=#f8cbad;movable=1;resizable=1;rotatable=1;deletable=1;editable=1;locked=0;connectable=1;" vertex="1" parent="qAqBDBvqotY8MNwrv96N-27">
          <mxGeometry x="1" width="20" height="20" relative="1" as="geometry">
            <mxPoint x="-27" y="7" as="offset" />
          </mxGeometry>
        </mxCell>
        <mxCell id="qAqBDBvqotY8MNwrv96N-29" value="«component&lt;span style=&quot;background-color: initial; font-size: 15px;&quot;&gt;»&lt;/span&gt;&lt;div style=&quot;font-size: 15px;&quot;&gt;&lt;b style=&quot;font-size: 15px;&quot;&gt;S01E01C03&lt;/b&gt;&lt;/div&gt;&lt;div style=&quot;font-size: 15px;&quot;&gt;&lt;b style=&quot;font-size: 15px;&quot;&gt;OSPI Driver&lt;/b&gt;&lt;/div&gt;" style="html=1;dropTarget=0;whiteSpace=wrap;rounded=1;strokeColor=#7030a0;strokeWidth=1.5;align=center;verticalAlign=middle;fontFamily=Helvetica;fontSize=15;fontColor=default;fillColor=#f8cbad;movable=1;resizable=1;rotatable=1;deletable=1;editable=1;locked=0;connectable=1;" vertex="1" parent="1">
          <mxGeometry x="877" y="860" width="170" height="60" as="geometry" />
        </mxCell>
        <mxCell id="qAqBDBvqotY8MNwrv96N-30" value="" style="shape=module;jettyWidth=8;jettyHeight=4;rounded=1;strokeColor=#7030a0;strokeWidth=1.5;align=center;verticalAlign=middle;fontFamily=Helvetica;fontSize=12;fontColor=default;fillColor=#f8cbad;movable=1;resizable=1;rotatable=1;deletable=1;editable=1;locked=0;connectable=1;" vertex="1" parent="qAqBDBvqotY8MNwrv96N-29">
          <mxGeometry x="1" width="20" height="20" relative="1" as="geometry">
            <mxPoint x="-27" y="7" as="offset" />
          </mxGeometry>
        </mxCell>
        <mxCell id="qAqBDBvqotY8MNwrv96N-33" value="«component&lt;span style=&quot;background-color: initial; font-size: 15px;&quot;&gt;»&lt;/span&gt;&lt;div style=&quot;font-size: 15px;&quot;&gt;&lt;b style=&quot;font-size: 15px;&quot;&gt;S01E01C04&lt;/b&gt;&lt;/div&gt;&lt;div style=&quot;font-size: 15px;&quot;&gt;&lt;b style=&quot;font-size: 15px;&quot;&gt;SDHCI Driver&lt;/b&gt;&lt;/div&gt;" style="html=1;dropTarget=0;whiteSpace=wrap;rounded=1;strokeColor=#7030a0;strokeWidth=1.5;align=center;verticalAlign=middle;fontFamily=Helvetica;fontSize=15;fontColor=default;fillColor=#f8cbad;movable=1;resizable=1;rotatable=1;deletable=1;editable=1;locked=0;connectable=1;" vertex="1" parent="1">
          <mxGeometry x="1120" y="860" width="170" height="60" as="geometry" />
        </mxCell>
        <mxCell id="qAqBDBvqotY8MNwrv96N-34" value="" style="shape=module;jettyWidth=8;jettyHeight=4;rounded=1;strokeColor=#7030a0;strokeWidth=1.5;align=center;verticalAlign=middle;fontFamily=Helvetica;fontSize=12;fontColor=default;fillColor=#f8cbad;movable=1;resizable=1;rotatable=1;deletable=1;editable=1;locked=0;connectable=1;" vertex="1" parent="qAqBDBvqotY8MNwrv96N-33">
          <mxGeometry x="1" width="20" height="20" relative="1" as="geometry">
            <mxPoint x="-27" y="7" as="offset" />
          </mxGeometry>
        </mxCell>
        <mxCell id="qAqBDBvqotY8MNwrv96N-35" value="«component&lt;span style=&quot;background-color: initial; font-size: 15px;&quot;&gt;»&lt;/span&gt;&lt;div style=&quot;font-size: 15px;&quot;&gt;&lt;b style=&quot;font-size: 15px;&quot;&gt;S01E01C05&lt;/b&gt;&lt;/div&gt;&lt;div style=&quot;font-size: 15px;&quot;&gt;&lt;b style=&quot;font-size: 15px;&quot;&gt;Nor/Nand/Hyper Driver&lt;/b&gt;&lt;/div&gt;" style="html=1;dropTarget=0;whiteSpace=wrap;rounded=1;strokeColor=#7030a0;strokeWidth=1.5;align=center;verticalAlign=middle;fontFamily=Helvetica;fontSize=15;fontColor=default;fillColor=#f8cbad;movable=1;resizable=1;rotatable=1;deletable=1;editable=1;locked=0;connectable=1;" vertex="1" parent="1">
          <mxGeometry x="640" y="860" width="170" height="60" as="geometry" />
        </mxCell>
        <mxCell id="qAqBDBvqotY8MNwrv96N-36" value="" style="shape=module;jettyWidth=8;jettyHeight=4;rounded=1;strokeColor=#7030a0;strokeWidth=1.5;align=center;verticalAlign=middle;fontFamily=Helvetica;fontSize=12;fontColor=default;fillColor=#f8cbad;movable=1;resizable=1;rotatable=1;deletable=1;editable=1;locked=0;connectable=1;" vertex="1" parent="qAqBDBvqotY8MNwrv96N-35">
          <mxGeometry x="1" width="20" height="20" relative="1" as="geometry">
            <mxPoint x="-27" y="7" as="offset" />
          </mxGeometry>
        </mxCell>
        <mxCell id="qAqBDBvqotY8MNwrv96N-37" value="«component&lt;span style=&quot;background-color: initial; font-size: 15px;&quot;&gt;»&lt;/span&gt;&lt;div style=&quot;font-size: 15px;&quot;&gt;&lt;b style=&quot;font-size: 15px;&quot;&gt;S01E01C13&lt;/b&gt;&lt;/div&gt;&lt;div style=&quot;font-size: 15px;&quot;&gt;&lt;b style=&quot;font-size: 15px;&quot;&gt;eFuse Driver&lt;/b&gt;&lt;/div&gt;" style="html=1;dropTarget=0;whiteSpace=wrap;rounded=1;strokeColor=#7030a0;strokeWidth=1.5;align=center;verticalAlign=middle;fontFamily=Helvetica;fontSize=15;fontColor=default;fillColor=#f8cbad;movable=1;resizable=1;rotatable=1;deletable=1;editable=1;locked=0;connectable=1;" vertex="1" parent="1">
          <mxGeometry x="370" y="860" width="170" height="60" as="geometry" />
        </mxCell>
        <mxCell id="qAqBDBvqotY8MNwrv96N-38" value="" style="shape=module;jettyWidth=8;jettyHeight=4;rounded=1;strokeColor=#7030a0;strokeWidth=1.5;align=center;verticalAlign=middle;fontFamily=Helvetica;fontSize=12;fontColor=default;fillColor=#f8cbad;movable=1;resizable=1;rotatable=1;deletable=1;editable=1;locked=0;connectable=1;" vertex="1" parent="qAqBDBvqotY8MNwrv96N-37">
          <mxGeometry x="1" width="20" height="20" relative="1" as="geometry">
            <mxPoint x="-27" y="7" as="offset" />
          </mxGeometry>
        </mxCell>
        <mxCell id="qAqBDBvqotY8MNwrv96N-39" value="«component&lt;span style=&quot;background-color: initial; font-size: 15px;&quot;&gt;»&lt;/span&gt;&lt;div style=&quot;font-size: 15px;&quot;&gt;&lt;b style=&quot;font-size: 15px;&quot;&gt;S01E01C14&lt;/b&gt;&lt;/div&gt;&lt;div style=&quot;font-size: 15px;&quot;&gt;&lt;b style=&quot;font-size: 15px;&quot;&gt;WWDT Driver&lt;/b&gt;&lt;/div&gt;" style="html=1;dropTarget=0;whiteSpace=wrap;rounded=1;strokeColor=#7030a0;strokeWidth=1.5;align=center;verticalAlign=middle;fontFamily=Helvetica;fontSize=15;fontColor=default;fillColor=#f8cbad;movable=1;resizable=1;rotatable=1;deletable=1;editable=1;locked=0;connectable=1;" vertex="1" parent="1">
          <mxGeometry x="380" y="960" width="170" height="60" as="geometry" />
        </mxCell>
        <mxCell id="qAqBDBvqotY8MNwrv96N-40" value="" style="shape=module;jettyWidth=8;jettyHeight=4;rounded=1;strokeColor=#7030a0;strokeWidth=1.5;align=center;verticalAlign=middle;fontFamily=Helvetica;fontSize=12;fontColor=default;fillColor=#f8cbad;movable=1;resizable=1;rotatable=1;deletable=1;editable=1;locked=0;connectable=1;" vertex="1" parent="qAqBDBvqotY8MNwrv96N-39">
          <mxGeometry x="1" width="20" height="20" relative="1" as="geometry">
            <mxPoint x="-27" y="7" as="offset" />
          </mxGeometry>
        </mxCell>
        <mxCell id="qAqBDBvqotY8MNwrv96N-41" value="«component&lt;span style=&quot;background-color: initial; font-size: 15px;&quot;&gt;»&lt;/span&gt;&lt;div style=&quot;font-size: 15px;&quot;&gt;&lt;b style=&quot;font-size: 15px;&quot;&gt;S01E01C06&lt;/b&gt;&lt;/div&gt;&lt;div style=&quot;font-size: 15px;&quot;&gt;&lt;b style=&quot;font-size: 15px;&quot;&gt;HSM Driver&lt;/b&gt;&lt;/div&gt;" style="html=1;dropTarget=0;whiteSpace=wrap;rounded=1;strokeColor=#7030a0;strokeWidth=1.5;align=center;verticalAlign=middle;fontFamily=Helvetica;fontSize=15;fontColor=default;fillColor=#f8cbad;movable=1;resizable=1;rotatable=1;deletable=1;editable=1;locked=0;connectable=1;" vertex="1" parent="1">
          <mxGeometry x="1120" y="960" width="170" height="60" as="geometry" />
        </mxCell>
        <mxCell id="qAqBDBvqotY8MNwrv96N-42" value="" style="shape=module;jettyWidth=8;jettyHeight=4;rounded=1;strokeColor=#7030a0;strokeWidth=1.5;align=center;verticalAlign=middle;fontFamily=Helvetica;fontSize=12;fontColor=default;fillColor=#f8cbad;movable=1;resizable=1;rotatable=1;deletable=1;editable=1;locked=0;connectable=1;" vertex="1" parent="qAqBDBvqotY8MNwrv96N-41">
          <mxGeometry x="1" width="20" height="20" relative="1" as="geometry">
            <mxPoint x="-27" y="7" as="offset" />
          </mxGeometry>
        </mxCell>
        <mxCell id="qAqBDBvqotY8MNwrv96N-43" value="«component&lt;span style=&quot;background-color: initial; font-size: 15px;&quot;&gt;»&lt;/span&gt;&lt;div style=&quot;font-size: 15px;&quot;&gt;&lt;b style=&quot;font-size: 15px;&quot;&gt;S01E01C09&lt;/b&gt;&lt;/div&gt;&lt;div style=&quot;font-size: 15px;&quot;&gt;&lt;b style=&quot;font-size: 15px;&quot;&gt;GZIP Driver&lt;/b&gt;&lt;/div&gt;" style="html=1;dropTarget=0;whiteSpace=wrap;rounded=1;strokeColor=#7030a0;strokeWidth=1.5;align=center;verticalAlign=middle;fontFamily=Helvetica;fontSize=15;fontColor=default;fillColor=#f8cbad;movable=1;resizable=1;rotatable=1;deletable=1;editable=1;locked=0;connectable=1;" vertex="1" parent="1">
          <mxGeometry x="1120" y="1060" width="170" height="60" as="geometry" />
        </mxCell>
        <mxCell id="qAqBDBvqotY8MNwrv96N-44" value="" style="shape=module;jettyWidth=8;jettyHeight=4;rounded=1;strokeColor=#7030a0;strokeWidth=1.5;align=center;verticalAlign=middle;fontFamily=Helvetica;fontSize=12;fontColor=default;fillColor=#f8cbad;movable=1;resizable=1;rotatable=1;deletable=1;editable=1;locked=0;connectable=1;" vertex="1" parent="qAqBDBvqotY8MNwrv96N-43">
          <mxGeometry x="1" width="20" height="20" relative="1" as="geometry">
            <mxPoint x="-27" y="7" as="offset" />
          </mxGeometry>
        </mxCell>
        <mxCell id="qAqBDBvqotY8MNwrv96N-45" value="SPL Drivers" style="text;html=1;align=center;verticalAlign=middle;whiteSpace=wrap;rounded=0;fontSize=18;movable=1;resizable=1;rotatable=1;deletable=1;editable=1;locked=0;connectable=1;" vertex="1" parent="1">
          <mxGeometry x="1220" y="750" width="160" height="30" as="geometry" />
        </mxCell>
        <mxCell id="qAqBDBvqotY8MNwrv96N-46" value="«component&lt;span style=&quot;background-color: initial;&quot;&gt;»&lt;/span&gt;&lt;div&gt;&lt;b&gt;Device Tree&lt;/b&gt;&lt;/div&gt;" style="html=1;dropTarget=0;whiteSpace=wrap;rounded=1;strokeColor=#7030a0;strokeWidth=1.5;align=center;verticalAlign=middle;fontFamily=Helvetica;fontSize=12;fontColor=default;fillColor=#b4c7e7;movable=1;resizable=1;rotatable=1;deletable=1;editable=1;locked=0;connectable=1;" vertex="1" parent="1">
          <mxGeometry x="590" y="750" width="170" height="60" as="geometry" />
        </mxCell>
        <mxCell id="qAqBDBvqotY8MNwrv96N-47" value="" style="shape=module;jettyWidth=8;jettyHeight=4;rounded=1;strokeColor=#7030a0;strokeWidth=1.5;align=center;verticalAlign=middle;fontFamily=Helvetica;fontSize=12;fontColor=default;fillColor=#b4c7e7;movable=1;resizable=1;rotatable=1;deletable=1;editable=1;locked=0;connectable=1;" vertex="1" parent="qAqBDBvqotY8MNwrv96N-46">
          <mxGeometry x="1" width="20" height="20" relative="1" as="geometry">
            <mxPoint x="-27" y="7" as="offset" />
          </mxGeometry>
        </mxCell>
        <mxCell id="qAqBDBvqotY8MNwrv96N-48" value="«component&lt;span style=&quot;background-color: initial; font-size: 15px;&quot;&gt;»&lt;/span&gt;&lt;div style=&quot;font-size: 15px;&quot;&gt;&lt;b style=&quot;font-size: 15px;&quot;&gt;libfdt&lt;/b&gt;&lt;/div&gt;" style="html=1;dropTarget=0;whiteSpace=wrap;rounded=1;strokeColor=#000000;strokeWidth=1.5;align=center;verticalAlign=middle;fontFamily=Helvetica;fontSize=15;fontColor=default;fillColor=#E6E6E6;movable=1;resizable=1;rotatable=1;deletable=1;editable=1;locked=0;connectable=1;" vertex="1" parent="1">
          <mxGeometry x="390" y="615" width="220" height="60" as="geometry" />
        </mxCell>
        <mxCell id="qAqBDBvqotY8MNwrv96N-49" value="" style="shape=module;jettyWidth=8;jettyHeight=4;rounded=1;strokeColor=#000000;strokeWidth=1.5;align=center;verticalAlign=middle;fontFamily=Helvetica;fontSize=12;fontColor=default;fillColor=default;movable=1;resizable=1;rotatable=1;deletable=1;editable=1;locked=0;connectable=1;" vertex="1" parent="qAqBDBvqotY8MNwrv96N-48">
          <mxGeometry x="1" width="20" height="20" relative="1" as="geometry">
            <mxPoint x="-27" y="7" as="offset" />
          </mxGeometry>
        </mxCell>
        <mxCell id="qAqBDBvqotY8MNwrv96N-52" value="«component&lt;span style=&quot;background-color: initial; font-size: 15px;&quot;&gt;»&lt;/span&gt;&lt;div style=&quot;font-size: 15px;&quot;&gt;&lt;b style=&quot;font-size: 15px;&quot;&gt;MTD Uclass&lt;/b&gt;&lt;/div&gt;" style="html=1;dropTarget=0;whiteSpace=wrap;rounded=1;strokeColor=#000000;strokeWidth=1.5;align=center;verticalAlign=middle;fontFamily=Helvetica;fontSize=15;fontColor=default;fillColor=#E6E6E6;movable=1;resizable=1;rotatable=1;deletable=1;editable=1;locked=0;connectable=1;" vertex="1" parent="1">
          <mxGeometry x="780.5" y="615" width="160" height="60" as="geometry" />
        </mxCell>
        <mxCell id="qAqBDBvqotY8MNwrv96N-53" value="" style="shape=module;jettyWidth=8;jettyHeight=4;rounded=1;strokeColor=#000000;strokeWidth=1.5;align=center;verticalAlign=middle;fontFamily=Helvetica;fontSize=12;fontColor=default;fillColor=default;movable=1;resizable=1;rotatable=1;deletable=1;editable=1;locked=0;connectable=1;" vertex="1" parent="qAqBDBvqotY8MNwrv96N-52">
          <mxGeometry x="1" width="20" height="20" relative="1" as="geometry">
            <mxPoint x="-27" y="7" as="offset" />
          </mxGeometry>
        </mxCell>
        <mxCell id="qAqBDBvqotY8MNwrv96N-54" value="«component&lt;span style=&quot;background-color: initial; font-size: 15px;&quot;&gt;»&lt;/span&gt;&lt;div style=&quot;font-size: 15px;&quot;&gt;&lt;b style=&quot;font-size: 15px;&quot;&gt;Block Uclass&lt;/b&gt;&lt;/div&gt;" style="html=1;dropTarget=0;whiteSpace=wrap;rounded=1;strokeColor=#000000;strokeWidth=1.5;align=center;verticalAlign=middle;fontFamily=Helvetica;fontSize=15;fontColor=default;fillColor=#E6E6E6;movable=1;resizable=1;rotatable=1;deletable=1;editable=1;locked=0;connectable=1;" vertex="1" parent="1">
          <mxGeometry x="890.5" y="495" width="160" height="60" as="geometry" />
        </mxCell>
        <mxCell id="qAqBDBvqotY8MNwrv96N-55" value="" style="shape=module;jettyWidth=8;jettyHeight=4;rounded=1;strokeColor=#000000;strokeWidth=1.5;align=center;verticalAlign=middle;fontFamily=Helvetica;fontSize=12;fontColor=default;fillColor=default;movable=1;resizable=1;rotatable=1;deletable=1;editable=1;locked=0;connectable=1;" vertex="1" parent="qAqBDBvqotY8MNwrv96N-54">
          <mxGeometry x="1" width="20" height="20" relative="1" as="geometry">
            <mxPoint x="-27" y="7" as="offset" />
          </mxGeometry>
        </mxCell>
        <mxCell id="qAqBDBvqotY8MNwrv96N-60" value="«component&lt;span style=&quot;background-color: initial; font-size: 15px;&quot;&gt;»&lt;/span&gt;&lt;div style=&quot;font-size: 15px;&quot;&gt;&lt;b style=&quot;font-size: 15px;&quot;&gt;AB support&lt;/b&gt;&lt;/div&gt;" style="html=1;dropTarget=0;whiteSpace=wrap;rounded=1;strokeColor=#000000;strokeWidth=1.5;align=center;verticalAlign=middle;fontFamily=Helvetica;fontSize=15;fontColor=default;fillColor=#E6E6E6;movable=1;resizable=1;rotatable=1;deletable=1;editable=1;locked=0;connectable=1;" vertex="1" parent="1">
          <mxGeometry x="570.5" y="485" width="160" height="60" as="geometry" />
        </mxCell>
        <mxCell id="qAqBDBvqotY8MNwrv96N-61" value="" style="shape=module;jettyWidth=8;jettyHeight=4;rounded=1;strokeColor=#000000;strokeWidth=1.5;align=center;verticalAlign=middle;fontFamily=Helvetica;fontSize=12;fontColor=default;fillColor=default;movable=1;resizable=1;rotatable=1;deletable=1;editable=1;locked=0;connectable=1;" vertex="1" parent="qAqBDBvqotY8MNwrv96N-60">
          <mxGeometry x="1" width="20" height="20" relative="1" as="geometry">
            <mxPoint x="-27" y="7" as="offset" />
          </mxGeometry>
        </mxCell>
        <mxCell id="qAqBDBvqotY8MNwrv96N-64" value="«component&lt;span style=&quot;background-color: initial; font-size: 15px;&quot;&gt;»&lt;/span&gt;&lt;div style=&quot;font-size: 15px;&quot;&gt;&lt;b style=&quot;font-size: 15px;&quot;&gt;GPT&lt;/b&gt;&lt;/div&gt;" style="html=1;dropTarget=0;whiteSpace=wrap;rounded=1;strokeColor=#000000;strokeWidth=1.5;align=center;verticalAlign=middle;fontFamily=Helvetica;fontSize=15;fontColor=default;fillColor=#E6E6E6;movable=1;resizable=1;rotatable=1;deletable=1;editable=1;locked=0;connectable=1;" vertex="1" parent="1">
          <mxGeometry x="1170.5" y="595" width="150" height="60" as="geometry" />
        </mxCell>
        <mxCell id="qAqBDBvqotY8MNwrv96N-65" value="" style="shape=module;jettyWidth=8;jettyHeight=4;rounded=1;strokeColor=#000000;strokeWidth=1.5;align=center;verticalAlign=middle;fontFamily=Helvetica;fontSize=12;fontColor=default;fillColor=default;movable=1;resizable=1;rotatable=1;deletable=1;editable=1;locked=0;connectable=1;" vertex="1" parent="qAqBDBvqotY8MNwrv96N-64">
          <mxGeometry x="1" width="20" height="20" relative="1" as="geometry">
            <mxPoint x="-27" y="7" as="offset" />
          </mxGeometry>
        </mxCell>
        <mxCell id="qAqBDBvqotY8MNwrv96N-68" value="«component&lt;span style=&quot;background-color: initial; font-size: 15px;&quot;&gt;»&lt;/span&gt;&lt;div style=&quot;font-size: 15px;&quot;&gt;&lt;b style=&quot;font-size: 15px;&quot;&gt;FAT32&lt;/b&gt;&lt;/div&gt;" style="html=1;dropTarget=0;whiteSpace=wrap;rounded=1;strokeColor=#000000;strokeWidth=1.5;align=center;verticalAlign=middle;fontFamily=Helvetica;fontSize=15;fontColor=default;fillColor=#E6E6E6;movable=1;resizable=1;rotatable=1;deletable=1;editable=1;locked=0;connectable=1;" vertex="1" parent="1">
          <mxGeometry x="1160.5" y="495" width="150" height="60" as="geometry" />
        </mxCell>
        <mxCell id="qAqBDBvqotY8MNwrv96N-69" value="" style="shape=module;jettyWidth=8;jettyHeight=4;rounded=1;strokeColor=#000000;strokeWidth=1.5;align=center;verticalAlign=middle;fontFamily=Helvetica;fontSize=12;fontColor=default;fillColor=default;movable=1;resizable=1;rotatable=1;deletable=1;editable=1;locked=0;connectable=1;" vertex="1" parent="qAqBDBvqotY8MNwrv96N-68">
          <mxGeometry x="1" width="20" height="20" relative="1" as="geometry">
            <mxPoint x="-27" y="7" as="offset" />
          </mxGeometry>
        </mxCell>
        <mxCell id="qAqBDBvqotY8MNwrv96N-72" value="«component&lt;span style=&quot;background-color: initial; font-size: 15px;&quot;&gt;»&lt;/span&gt;&lt;div style=&quot;font-size: 15px;&quot;&gt;&lt;b style=&quot;font-size: 15px;&quot;&gt;S01E01C16&lt;/b&gt;&lt;/div&gt;&lt;div style=&quot;font-size: 15px;&quot;&gt;&lt;b style=&quot;font-size: 15px;&quot;&gt;Bootup Config&lt;/b&gt;&lt;/div&gt;" style="html=1;dropTarget=0;whiteSpace=wrap;rounded=1;strokeColor=#7030a0;strokeWidth=1.5;align=center;verticalAlign=middle;fontFamily=Helvetica;fontSize=15;fontColor=default;fillColor=#f8cbad;movable=1;resizable=1;rotatable=1;deletable=1;editable=1;locked=0;connectable=1;" vertex="1" parent="1">
          <mxGeometry x="120" y="200" width="170" height="60" as="geometry" />
        </mxCell>
        <mxCell id="qAqBDBvqotY8MNwrv96N-73" value="" style="shape=module;jettyWidth=8;jettyHeight=4;rounded=1;strokeColor=#7030a0;strokeWidth=1.5;align=center;verticalAlign=middle;fontFamily=Helvetica;fontSize=12;fontColor=default;fillColor=#f8cbad;movable=1;resizable=1;rotatable=1;deletable=1;editable=1;locked=0;connectable=1;" vertex="1" parent="qAqBDBvqotY8MNwrv96N-72">
          <mxGeometry x="1" width="20" height="20" relative="1" as="geometry">
            <mxPoint x="-27" y="7" as="offset" />
          </mxGeometry>
        </mxCell>
        <mxCell id="qAqBDBvqotY8MNwrv96N-80" value="«component&lt;span style=&quot;background-color: initial; font-size: 15px;&quot;&gt;»&lt;/span&gt;&lt;div style=&quot;font-size: 15px;&quot;&gt;&lt;b style=&quot;font-size: 15px;&quot;&gt;S01E01C17&lt;/b&gt;&lt;/div&gt;&lt;div style=&quot;font-size: 15px;&quot;&gt;&lt;b style=&quot;font-size: 15px;&quot;&gt;Load Image&lt;/b&gt;&lt;/div&gt;" style="html=1;dropTarget=0;whiteSpace=wrap;rounded=1;strokeColor=#7030a0;strokeWidth=1.5;align=center;verticalAlign=middle;fontFamily=Helvetica;fontSize=15;fontColor=default;fillColor=#f8cbad;movable=1;resizable=1;rotatable=1;deletable=1;editable=1;locked=0;connectable=1;" vertex="1" parent="1">
          <mxGeometry x="1140" y="290" width="170" height="60" as="geometry" />
        </mxCell>
        <mxCell id="qAqBDBvqotY8MNwrv96N-81" value="" style="shape=module;jettyWidth=8;jettyHeight=4;rounded=1;strokeColor=#7030a0;strokeWidth=1.5;align=center;verticalAlign=middle;fontFamily=Helvetica;fontSize=12;fontColor=default;fillColor=#f8cbad;movable=1;resizable=1;rotatable=1;deletable=1;editable=1;locked=0;connectable=1;" vertex="1" parent="qAqBDBvqotY8MNwrv96N-80">
          <mxGeometry x="1" width="20" height="20" relative="1" as="geometry">
            <mxPoint x="-27" y="7" as="offset" />
          </mxGeometry>
        </mxCell>
        <mxCell id="qAqBDBvqotY8MNwrv96N-84" value="«component&lt;span style=&quot;background-color: initial; font-size: 15px;&quot;&gt;»&lt;/span&gt;&lt;div style=&quot;font-size: 15px;&quot;&gt;&lt;b style=&quot;font-size: 15px;&quot;&gt;S01E01C18&lt;/b&gt;&lt;/div&gt;&lt;div style=&quot;font-size: 15px;&quot;&gt;&lt;b style=&quot;font-size: 15px;&quot;&gt;Bootup Image&lt;/b&gt;&lt;/div&gt;" style="html=1;dropTarget=0;whiteSpace=wrap;rounded=1;strokeColor=#7030a0;strokeWidth=1.5;align=center;verticalAlign=middle;fontFamily=Helvetica;fontSize=15;fontColor=default;fillColor=#f8cbad;movable=1;resizable=1;rotatable=1;deletable=1;editable=1;locked=0;connectable=1;" vertex="1" parent="1">
          <mxGeometry x="370" y="200" width="170" height="60" as="geometry" />
        </mxCell>
        <mxCell id="qAqBDBvqotY8MNwrv96N-85" value="" style="shape=module;jettyWidth=8;jettyHeight=4;rounded=1;strokeColor=#7030a0;strokeWidth=1.5;align=center;verticalAlign=middle;fontFamily=Helvetica;fontSize=12;fontColor=default;fillColor=#f8cbad;movable=1;resizable=1;rotatable=1;deletable=1;editable=1;locked=0;connectable=1;" vertex="1" parent="qAqBDBvqotY8MNwrv96N-84">
          <mxGeometry x="1" width="20" height="20" relative="1" as="geometry">
            <mxPoint x="-27" y="7" as="offset" />
          </mxGeometry>
        </mxCell>
        <mxCell id="qAqBDBvqotY8MNwrv96N-86" value="" style="endArrow=classic;html=1;rounded=0;exitX=0.5;exitY=1;exitDx=0;exitDy=0;entryX=0.5;entryY=0;entryDx=0;entryDy=0;strokeWidth=2;movable=1;resizable=1;rotatable=1;deletable=1;editable=1;locked=0;connectable=1;" edge="1" parent="1" source="qAqBDBvqotY8MNwrv96N-54" target="qAqBDBvqotY8MNwrv96N-33">
          <mxGeometry width="50" height="50" relative="1" as="geometry">
            <mxPoint x="920" y="560" as="sourcePoint" />
            <mxPoint x="970" y="510" as="targetPoint" />
            <Array as="points">
              <mxPoint x="970" y="800" />
              <mxPoint x="1205" y="800" />
            </Array>
          </mxGeometry>
        </mxCell>
        <mxCell id="qAqBDBvqotY8MNwrv96N-87" value="" style="endArrow=classic;html=1;rounded=0;exitX=0;exitY=0.5;exitDx=0;exitDy=0;entryX=0.75;entryY=1;entryDx=0;entryDy=0;strokeWidth=2;movable=1;resizable=1;rotatable=1;deletable=1;editable=1;locked=0;connectable=1;" edge="1" parent="1" source="qAqBDBvqotY8MNwrv96N-64" target="qAqBDBvqotY8MNwrv96N-54">
          <mxGeometry width="50" height="50" relative="1" as="geometry">
            <mxPoint x="920.5" y="605" as="sourcePoint" />
            <mxPoint x="970.5" y="555" as="targetPoint" />
            <Array as="points">
              <mxPoint x="1010.5" y="625" />
            </Array>
          </mxGeometry>
        </mxCell>
        <mxCell id="qAqBDBvqotY8MNwrv96N-88" value="" style="endArrow=classic;html=1;rounded=0;exitX=0;exitY=0.5;exitDx=0;exitDy=0;entryX=1;entryY=0.5;entryDx=0;entryDy=0;strokeWidth=2;movable=1;resizable=1;rotatable=1;deletable=1;editable=1;locked=0;connectable=1;" edge="1" parent="1" source="qAqBDBvqotY8MNwrv96N-68" target="qAqBDBvqotY8MNwrv96N-54">
          <mxGeometry width="50" height="50" relative="1" as="geometry">
            <mxPoint x="920.5" y="605" as="sourcePoint" />
            <mxPoint x="970.5" y="555" as="targetPoint" />
            <Array as="points" />
          </mxGeometry>
        </mxCell>
        <mxCell id="qAqBDBvqotY8MNwrv96N-90" value="" style="endArrow=classic;html=1;rounded=0;exitX=0;exitY=0.5;exitDx=0;exitDy=0;entryX=0.5;entryY=0;entryDx=0;entryDy=0;strokeWidth=2;movable=1;resizable=1;rotatable=1;deletable=1;editable=1;locked=0;connectable=1;" edge="1" parent="1" source="qAqBDBvqotY8MNwrv96N-80" target="qAqBDBvqotY8MNwrv96N-54">
          <mxGeometry width="50" height="50" relative="1" as="geometry">
            <mxPoint x="920" y="560" as="sourcePoint" />
            <mxPoint x="970" y="510" as="targetPoint" />
            <Array as="points">
              <mxPoint x="971" y="320" />
            </Array>
          </mxGeometry>
        </mxCell>
        <mxCell id="qAqBDBvqotY8MNwrv96N-94" value="" style="endArrow=classic;html=1;rounded=0;exitX=0.75;exitY=1;exitDx=0;exitDy=0;strokeWidth=2;movable=1;resizable=1;rotatable=1;deletable=1;editable=1;locked=0;connectable=1;" edge="1" parent="1" source="qAqBDBvqotY8MNwrv96N-84" target="qAqBDBvqotY8MNwrv96N-48">
          <mxGeometry width="50" height="50" relative="1" as="geometry">
            <mxPoint x="700" y="560" as="sourcePoint" />
            <mxPoint x="750" y="510" as="targetPoint" />
            <Array as="points" />
          </mxGeometry>
        </mxCell>
        <mxCell id="qAqBDBvqotY8MNwrv96N-98" value="" style="endArrow=classic;html=1;rounded=0;exitX=1;exitY=0.5;exitDx=0;exitDy=0;entryX=0.5;entryY=0;entryDx=0;entryDy=0;strokeWidth=2;movable=1;resizable=1;rotatable=1;deletable=1;editable=1;locked=0;connectable=1;" edge="1" parent="1" source="qAqBDBvqotY8MNwrv96N-84" target="qAqBDBvqotY8MNwrv96N-80">
          <mxGeometry width="50" height="50" relative="1" as="geometry">
            <mxPoint x="710" y="610" as="sourcePoint" />
            <mxPoint x="760" y="560" as="targetPoint" />
            <Array as="points">
              <mxPoint x="1225" y="230" />
            </Array>
          </mxGeometry>
        </mxCell>
        <mxCell id="qAqBDBvqotY8MNwrv96N-100" value="" style="endArrow=classic;html=1;rounded=0;exitX=0.5;exitY=1;exitDx=0;exitDy=0;entryX=0.5;entryY=0;entryDx=0;entryDy=0;strokeWidth=2;movable=1;resizable=1;rotatable=1;deletable=1;editable=1;locked=0;connectable=1;" edge="1" parent="1" source="qAqBDBvqotY8MNwrv96N-52" target="qAqBDBvqotY8MNwrv96N-35">
          <mxGeometry width="50" height="50" relative="1" as="geometry">
            <mxPoint x="790" y="780" as="sourcePoint" />
            <mxPoint x="840" y="730" as="targetPoint" />
            <Array as="points">
              <mxPoint x="860" y="830" />
              <mxPoint x="725" y="830" />
            </Array>
          </mxGeometry>
        </mxCell>
        <mxCell id="qAqBDBvqotY8MNwrv96N-101" value="" style="endArrow=classic;html=1;rounded=0;exitX=0.75;exitY=1;exitDx=0;exitDy=0;entryX=0.5;entryY=0;entryDx=0;entryDy=0;strokeWidth=2;movable=1;resizable=1;rotatable=1;deletable=1;editable=1;locked=0;connectable=1;" edge="1" parent="1" source="qAqBDBvqotY8MNwrv96N-52" target="qAqBDBvqotY8MNwrv96N-29">
          <mxGeometry width="50" height="50" relative="1" as="geometry">
            <mxPoint x="790" y="780" as="sourcePoint" />
            <mxPoint x="840" y="730" as="targetPoint" />
            <Array as="points">
              <mxPoint x="900" y="830" />
              <mxPoint x="962" y="830" />
            </Array>
          </mxGeometry>
        </mxCell>
        <mxCell id="qAqBDBvqotY8MNwrv96N-102" value="" style="shape=flexArrow;endArrow=classic;startArrow=classic;html=1;rounded=0;entryX=0.5;entryY=1;entryDx=0;entryDy=0;movable=1;resizable=1;rotatable=1;deletable=1;editable=1;locked=0;connectable=1;" edge="1" parent="1" source="qAqBDBvqotY8MNwrv96N-15" target="qAqBDBvqotY8MNwrv96N-10">
          <mxGeometry width="100" height="100" relative="1" as="geometry">
            <mxPoint x="620" y="1450" as="sourcePoint" />
            <mxPoint x="720" y="1350" as="targetPoint" />
          </mxGeometry>
        </mxCell>
        <mxCell id="qAqBDBvqotY8MNwrv96N-103" value="SPL Open-Source" style="text;html=1;align=center;verticalAlign=middle;whiteSpace=wrap;rounded=0;fontSize=18;movable=1;resizable=1;rotatable=1;deletable=1;editable=1;locked=0;connectable=1;" vertex="1" parent="1">
          <mxGeometry x="1160.5" y="445" width="190" height="30" as="geometry" />
        </mxCell>
        <mxCell id="qAqBDBvqotY8MNwrv96N-104" value="SPL Common" style="text;html=1;align=center;verticalAlign=middle;whiteSpace=wrap;rounded=0;fontSize=18;movable=1;resizable=1;rotatable=1;deletable=1;editable=1;locked=0;connectable=1;" vertex="1" parent="1">
          <mxGeometry x="1180" y="180" width="190" height="30" as="geometry" />
        </mxCell>
        <mxCell id="qAqBDBvqotY8MNwrv96N-105" value="&lt;font style=&quot;font-size: 18px;&quot;&gt;&lt;b&gt;S01E01 BL2 SPL&lt;/b&gt;&lt;/font&gt;" style="text;html=1;align=center;verticalAlign=middle;whiteSpace=wrap;rounded=0;movable=1;resizable=1;rotatable=1;deletable=1;editable=1;locked=0;connectable=1;" vertex="1" parent="1">
          <mxGeometry x="-40" y="60" width="210" height="40" as="geometry" />
        </mxCell>
        <mxCell id="qAqBDBvqotY8MNwrv96N-106" value="«component&lt;span style=&quot;background-color: initial; font-size: 15px;&quot;&gt;»&lt;/span&gt;&lt;div style=&quot;font-size: 15px;&quot;&gt;&lt;b style=&quot;font-size: 15px;&quot;&gt;S01E01C19&lt;/b&gt;&lt;/div&gt;&lt;div style=&quot;font-size: 15px;&quot;&gt;&lt;b&gt;Verify Image&lt;/b&gt;&lt;/div&gt;" style="html=1;dropTarget=0;whiteSpace=wrap;rounded=1;strokeColor=#7030a0;strokeWidth=1.5;align=center;verticalAlign=middle;fontFamily=Helvetica;fontSize=15;fontColor=default;fillColor=#f8cbad;movable=1;resizable=1;rotatable=1;deletable=1;editable=1;locked=0;connectable=1;" vertex="1" parent="1">
          <mxGeometry x="300" y="310" width="170" height="60" as="geometry" />
        </mxCell>
        <mxCell id="qAqBDBvqotY8MNwrv96N-107" value="" style="shape=module;jettyWidth=8;jettyHeight=4;rounded=1;strokeColor=#7030a0;strokeWidth=1.5;align=center;verticalAlign=middle;fontFamily=Helvetica;fontSize=12;fontColor=default;fillColor=#f8cbad;movable=1;resizable=1;rotatable=1;deletable=1;editable=1;locked=0;connectable=1;" vertex="1" parent="qAqBDBvqotY8MNwrv96N-106">
          <mxGeometry x="1" width="20" height="20" relative="1" as="geometry">
            <mxPoint x="-27" y="7" as="offset" />
          </mxGeometry>
        </mxCell>
        <mxCell id="qAqBDBvqotY8MNwrv96N-108" value="«component&lt;span style=&quot;background-color: initial; font-size: 15px;&quot;&gt;»&lt;/span&gt;&lt;div style=&quot;font-size: 15px;&quot;&gt;&lt;b style=&quot;font-size: 15px;&quot;&gt;S01E01C15&lt;/b&gt;&lt;/div&gt;&lt;div style=&quot;font-size: 15px;&quot;&gt;&lt;b style=&quot;font-size: 15px;&quot;&gt;DMA PER Driver&lt;/b&gt;&lt;/div&gt;" style="html=1;dropTarget=0;whiteSpace=wrap;rounded=1;strokeColor=#7030a0;strokeWidth=1.5;align=center;verticalAlign=middle;fontFamily=Helvetica;fontSize=15;fontColor=default;fillColor=#f8cbad;movable=1;resizable=1;rotatable=1;deletable=1;editable=1;locked=0;connectable=1;" vertex="1" parent="1">
          <mxGeometry x="370" y="760" width="170" height="60" as="geometry" />
        </mxCell>
        <mxCell id="qAqBDBvqotY8MNwrv96N-109" value="" style="shape=module;jettyWidth=8;jettyHeight=4;rounded=1;strokeColor=#7030a0;strokeWidth=1.5;align=center;verticalAlign=middle;fontFamily=Helvetica;fontSize=12;fontColor=default;fillColor=#f8cbad;movable=1;resizable=1;rotatable=1;deletable=1;editable=1;locked=0;connectable=1;" vertex="1" parent="qAqBDBvqotY8MNwrv96N-108">
          <mxGeometry x="1" width="20" height="20" relative="1" as="geometry">
            <mxPoint x="-27" y="7" as="offset" />
          </mxGeometry>
        </mxCell>
        <mxCell id="qAqBDBvqotY8MNwrv96N-110" value="" style="endArrow=classic;html=1;rounded=0;exitX=0;exitY=0.5;exitDx=0;exitDy=0;entryX=0.5;entryY=0;entryDx=0;entryDy=0;strokeWidth=2;" edge="1" parent="1" source="qAqBDBvqotY8MNwrv96N-80" target="qAqBDBvqotY8MNwrv96N-60">
          <mxGeometry width="50" height="50" relative="1" as="geometry">
            <mxPoint x="1010" y="570" as="sourcePoint" />
            <mxPoint x="1060" y="520" as="targetPoint" />
            <Array as="points">
              <mxPoint x="651" y="320" />
            </Array>
          </mxGeometry>
        </mxCell>
        <mxCell id="qAqBDBvqotY8MNwrv96N-111" value="" style="endArrow=classic;html=1;rounded=0;exitX=0;exitY=0.5;exitDx=0;exitDy=0;entryX=0.5;entryY=0;entryDx=0;entryDy=0;strokeWidth=2;" edge="1" parent="1" source="qAqBDBvqotY8MNwrv96N-80" target="qAqBDBvqotY8MNwrv96N-52">
          <mxGeometry width="50" height="50" relative="1" as="geometry">
            <mxPoint x="1070" y="490" as="sourcePoint" />
            <mxPoint x="1120" y="440" as="targetPoint" />
            <Array as="points">
              <mxPoint x="861" y="320" />
            </Array>
          </mxGeometry>
        </mxCell>
        <mxCell id="qAqBDBvqotY8MNwrv96N-113" value="" style="endArrow=classic;html=1;rounded=0;exitX=1;exitY=0.5;exitDx=0;exitDy=0;entryX=0.5;entryY=0;entryDx=0;entryDy=0;strokeWidth=2;" edge="1" parent="1" source="qAqBDBvqotY8MNwrv96N-48" target="qAqBDBvqotY8MNwrv96N-46">
          <mxGeometry width="50" height="50" relative="1" as="geometry">
            <mxPoint x="580" y="670" as="sourcePoint" />
            <mxPoint x="630" y="620" as="targetPoint" />
            <Array as="points">
              <mxPoint x="675" y="645" />
            </Array>
          </mxGeometry>
        </mxCell>
        <mxCell id="qAqBDBvqotY8MNwrv96N-114" value="" style="endArrow=classic;html=1;rounded=0;entryX=0.345;entryY=-0.003;entryDx=0;entryDy=0;exitX=0.5;exitY=1;exitDx=0;exitDy=0;strokeWidth=2;entryPerimeter=0;" edge="1" parent="1" source="qAqBDBvqotY8MNwrv96N-72" target="qAqBDBvqotY8MNwrv96N-23">
          <mxGeometry width="50" height="50" relative="1" as="geometry">
            <mxPoint x="880" y="560" as="sourcePoint" />
            <mxPoint x="930" y="510" as="targetPoint" />
            <Array as="points">
              <mxPoint x="209" y="610" />
            </Array>
          </mxGeometry>
        </mxCell>
        <mxCell id="qAqBDBvqotY8MNwrv96N-115" value="" style="endArrow=classic;html=1;rounded=0;entryX=0;entryY=0.5;entryDx=0;entryDy=0;exitX=0.5;exitY=1;exitDx=0;exitDy=0;strokeWidth=2;" edge="1" parent="1" source="qAqBDBvqotY8MNwrv96N-72" target="qAqBDBvqotY8MNwrv96N-37">
          <mxGeometry width="50" height="50" relative="1" as="geometry">
            <mxPoint x="840" y="880" as="sourcePoint" />
            <mxPoint x="890" y="830" as="targetPoint" />
            <Array as="points">
              <mxPoint x="210" y="760" />
              <mxPoint x="320" y="760" />
              <mxPoint x="320" y="890" />
            </Array>
          </mxGeometry>
        </mxCell>
        <mxCell id="qAqBDBvqotY8MNwrv96N-118" value="" style="endArrow=classic;html=1;rounded=0;exitX=0.5;exitY=1;exitDx=0;exitDy=0;entryX=0.5;entryY=0;entryDx=0;entryDy=0;strokeWidth=2;" edge="1" parent="1" source="qAqBDBvqotY8MNwrv96N-72" target="qAqBDBvqotY8MNwrv96N-21">
          <mxGeometry width="50" height="50" relative="1" as="geometry">
            <mxPoint x="840" y="760" as="sourcePoint" />
            <mxPoint x="890" y="710" as="targetPoint" />
            <Array as="points">
              <mxPoint x="210" y="760" />
              <mxPoint x="125" y="760" />
            </Array>
          </mxGeometry>
        </mxCell>
        <mxCell id="qAqBDBvqotY8MNwrv96N-119" value="" style="endArrow=classic;html=1;rounded=0;exitX=0.5;exitY=1;exitDx=0;exitDy=0;entryX=0.5;entryY=0;entryDx=0;entryDy=0;strokeWidth=2;" edge="1" parent="1" source="qAqBDBvqotY8MNwrv96N-72" target="qAqBDBvqotY8MNwrv96N-19">
          <mxGeometry width="50" height="50" relative="1" as="geometry">
            <mxPoint x="460" y="790" as="sourcePoint" />
            <mxPoint x="510" y="740" as="targetPoint" />
            <Array as="points">
              <mxPoint x="210" y="760" />
              <mxPoint x="320" y="760" />
              <mxPoint x="320" y="940" />
              <mxPoint x="365" y="940" />
              <mxPoint x="365" y="1000" />
            </Array>
          </mxGeometry>
        </mxCell>
      </root>
    </mxGraphModel>
  </diagram>
</mxfile>
